<?xml version="1.0" encoding="UTF-8"?><svg xmlns="http://www.w3.org/2000/svg" xmlns:xlink="http://www.w3.org/1999/xlink" stroke-dasharray="none" shape-rendering="auto" font-family="'Dialog'" width="754" text-rendering="auto" fill-opacity="1" contentScriptType="text/ecmascript" color-interpolation="auto" color-rendering="auto" preserveAspectRatio="xMidYMid meet" font-size="12px" fill="black" stroke="black" image-rendering="auto" stroke-miterlimit="10" zoomAndPan="magnify" version="1.0" stroke-linecap="square" stroke-linejoin="miter" contentStyleType="text/css" font-style="normal" height="571" stroke-width="1" stroke-dashoffset="0" font-weight="normal" stroke-opacity="1">
    <!--Generated by the Batik Graphics2D SVG Generator-->
    <defs id="genericDefs"/>
    <g>
        <defs id="defs1">
            <clipPath clipPathUnits="userSpaceOnUse" id="clipPath1">
                <path d="M49 44 L705 44 L705 546 L49 546 L49 44 Z"/>
            </clipPath>
            <clipPath clipPathUnits="userSpaceOnUse" id="clipPath2">
                <path d="M-1 -1 L755 -1 L755 572 L-1 572 L-1 -1 Z"/>
            </clipPath>
            <clipPath clipPathUnits="userSpaceOnUse" id="clipPath3">
                <path d="M479 49 L701 49 L701 78 L479 78 L479 49 Z"/>
            </clipPath>
        </defs>
        <g font-size="15px" fill="white" text-rendering="optimizeLegibility" font-family="'Segoe UI'" stroke-linejoin="round" stroke="white" stroke-width="0" stroke-miterlimit="0">
            <rect x="50" width="654" height="500" y="45" clip-path="url(#clipPath1)" stroke="none"/>
        </g>
        <g stroke-linecap="butt" font-size="15px" fill="rgb(204,204,204)" text-rendering="optimizeLegibility" font-family="'Segoe UI'" stroke-dasharray="3,3" stroke="rgb(204,204,204)">
            <line y2="545" fill="none" x1="50" clip-path="url(#clipPath1)" x2="50" y1="45"/>
            <line y2="545" fill="none" x1="111" clip-path="url(#clipPath1)" x2="111" y1="45"/>
            <line y2="545" fill="none" x1="172" clip-path="url(#clipPath1)" x2="172" y1="45"/>
            <line y2="545" fill="none" x1="233" clip-path="url(#clipPath1)" x2="233" y1="45"/>
            <line y2="545" fill="none" x1="294" clip-path="url(#clipPath1)" x2="294" y1="45"/>
            <line y2="545" fill="none" x1="355" clip-path="url(#clipPath1)" x2="355" y1="45"/>
            <line y2="545" fill="none" x1="416" clip-path="url(#clipPath1)" x2="416" y1="45"/>
            <line y2="545" fill="none" x1="477" clip-path="url(#clipPath1)" x2="477" y1="45"/>
            <line y2="545" fill="none" x1="538" clip-path="url(#clipPath1)" x2="538" y1="45"/>
            <line y2="545" fill="none" x1="599" clip-path="url(#clipPath1)" x2="599" y1="45"/>
            <line y2="545" fill="none" x1="660" clip-path="url(#clipPath1)" x2="660" y1="45"/>
            <line y2="525" fill="none" x1="50" clip-path="url(#clipPath1)" x2="704" y1="525"/>
            <line y2="445" fill="none" x1="50" clip-path="url(#clipPath1)" x2="704" y1="445"/>
            <line y2="365" fill="none" x1="50" clip-path="url(#clipPath1)" x2="704" y1="365"/>
            <line y2="285" fill="none" x1="50" clip-path="url(#clipPath1)" x2="704" y1="285"/>
            <line y2="205" fill="none" x1="50" clip-path="url(#clipPath1)" x2="704" y1="205"/>
            <line y2="125" fill="none" x1="50" clip-path="url(#clipPath1)" x2="704" y1="125"/>
            <line y2="45" fill="none" x1="50" clip-path="url(#clipPath1)" x2="704" y1="45"/>
            <rect x="50" y="45" clip-path="url(#clipPath2)" fill="none" width="654" stroke-dasharray="none" height="500" stroke="black"/>
        </g>
        <g text-rendering="optimizeLegibility" font-size="16px" font-family="'Arial'" stroke-linecap="butt">
            <text x="255" xml:space="preserve" y="15" clip-path="url(#clipPath2)" stroke="none">receptionPower:vector in Network</text>
            <rect x="480" y="50" clip-path="url(#clipPath3)" fill="white" width="219" opacity="0.753" height="26" stroke="none"/>
            <line clip-path="url(#clipPath3)" fill="none" x1="486" x2="500" y1="63" y2="63" stroke="rgb(31,119,180)" stroke-width="2"/>
            <text x="502" font-size="13px" y="67" clip-path="url(#clipPath3)" stroke="none" stroke-width="2" xml:space="preserve">receptionPower:vector in Network</text>
            <line y2="43" fill="none" x1="50" clip-path="url(#clipPath2)" x2="704" y1="43"/>
            <line y2="547" fill="none" x1="50" clip-path="url(#clipPath2)" x2="704" y1="547"/>
            <line y2="43" fill="none" x1="50" clip-path="url(#clipPath2)" x2="50" y1="39"/>
            <line y2="547" fill="none" x1="50" clip-path="url(#clipPath2)" x2="50" y1="551"/>
            <text x="47" xml:space="preserve" font-size="13px" y="35" clip-path="url(#clipPath2)" stroke="none">0</text>
            <text x="47" xml:space="preserve" font-size="13px" y="564" clip-path="url(#clipPath2)" stroke="none">0</text>
            <line y2="43" fill="none" x1="62" clip-path="url(#clipPath2)" x2="62" y1="41"/>
            <line y2="547" fill="none" x1="62" clip-path="url(#clipPath2)" x2="62" y1="549"/>
            <line y2="43" fill="none" x1="74" clip-path="url(#clipPath2)" x2="74" y1="41"/>
            <line y2="547" fill="none" x1="74" clip-path="url(#clipPath2)" x2="74" y1="549"/>
            <line y2="43" fill="none" x1="86" clip-path="url(#clipPath2)" x2="86" y1="41"/>
            <line y2="547" fill="none" x1="86" clip-path="url(#clipPath2)" x2="86" y1="549"/>
            <line y2="43" fill="none" x1="98" clip-path="url(#clipPath2)" x2="98" y1="41"/>
            <line y2="547" fill="none" x1="98" clip-path="url(#clipPath2)" x2="98" y1="549"/>
            <line y2="43" fill="none" x1="111" clip-path="url(#clipPath2)" x2="111" y1="39"/>
            <line y2="547" fill="none" x1="111" clip-path="url(#clipPath2)" x2="111" y1="551"/>
            <text x="105" xml:space="preserve" font-size="13px" y="35" clip-path="url(#clipPath2)" stroke="none">10</text>
            <text x="105" xml:space="preserve" font-size="13px" y="564" clip-path="url(#clipPath2)" stroke="none">10</text>
            <line y2="43" fill="none" x1="123" clip-path="url(#clipPath2)" x2="123" y1="41"/>
            <line y2="547" fill="none" x1="123" clip-path="url(#clipPath2)" x2="123" y1="549"/>
            <line y2="43" fill="none" x1="135" clip-path="url(#clipPath2)" x2="135" y1="41"/>
            <line y2="547" fill="none" x1="135" clip-path="url(#clipPath2)" x2="135" y1="549"/>
            <line y2="43" fill="none" x1="147" clip-path="url(#clipPath2)" x2="147" y1="41"/>
            <line y2="547" fill="none" x1="147" clip-path="url(#clipPath2)" x2="147" y1="549"/>
            <line y2="43" fill="none" x1="159" clip-path="url(#clipPath2)" x2="159" y1="41"/>
            <line y2="547" fill="none" x1="159" clip-path="url(#clipPath2)" x2="159" y1="549"/>
            <line y2="43" fill="none" x1="172" clip-path="url(#clipPath2)" x2="172" y1="39"/>
            <line y2="547" fill="none" x1="172" clip-path="url(#clipPath2)" x2="172" y1="551"/>
            <text x="166" xml:space="preserve" font-size="13px" y="35" clip-path="url(#clipPath2)" stroke="none">20</text>
            <text x="166" xml:space="preserve" font-size="13px" y="564" clip-path="url(#clipPath2)" stroke="none">20</text>
            <line y2="43" fill="none" x1="184" clip-path="url(#clipPath2)" x2="184" y1="41"/>
            <line y2="547" fill="none" x1="184" clip-path="url(#clipPath2)" x2="184" y1="549"/>
            <line y2="43" fill="none" x1="196" clip-path="url(#clipPath2)" x2="196" y1="41"/>
            <line y2="547" fill="none" x1="196" clip-path="url(#clipPath2)" x2="196" y1="549"/>
            <line y2="43" fill="none" x1="208" clip-path="url(#clipPath2)" x2="208" y1="41"/>
            <line y2="547" fill="none" x1="208" clip-path="url(#clipPath2)" x2="208" y1="549"/>
            <line y2="43" fill="none" x1="220" clip-path="url(#clipPath2)" x2="220" y1="41"/>
            <line y2="547" fill="none" x1="220" clip-path="url(#clipPath2)" x2="220" y1="549"/>
            <line y2="43" fill="none" x1="233" clip-path="url(#clipPath2)" x2="233" y1="39"/>
            <line y2="547" fill="none" x1="233" clip-path="url(#clipPath2)" x2="233" y1="551"/>
            <text x="227" xml:space="preserve" font-size="13px" y="35" clip-path="url(#clipPath2)" stroke="none">30</text>
            <text x="227" xml:space="preserve" font-size="13px" y="564" clip-path="url(#clipPath2)" stroke="none">30</text>
            <line y2="43" fill="none" x1="245" clip-path="url(#clipPath2)" x2="245" y1="41"/>
            <line y2="547" fill="none" x1="245" clip-path="url(#clipPath2)" x2="245" y1="549"/>
            <line y2="43" fill="none" x1="257" clip-path="url(#clipPath2)" x2="257" y1="41"/>
            <line y2="547" fill="none" x1="257" clip-path="url(#clipPath2)" x2="257" y1="549"/>
            <line y2="43" fill="none" x1="269" clip-path="url(#clipPath2)" x2="269" y1="41"/>
            <line y2="547" fill="none" x1="269" clip-path="url(#clipPath2)" x2="269" y1="549"/>
            <line y2="43" fill="none" x1="281" clip-path="url(#clipPath2)" x2="281" y1="41"/>
            <line y2="547" fill="none" x1="281" clip-path="url(#clipPath2)" x2="281" y1="549"/>
            <line y2="43" fill="none" x1="294" clip-path="url(#clipPath2)" x2="294" y1="39"/>
            <line y2="547" fill="none" x1="294" clip-path="url(#clipPath2)" x2="294" y1="551"/>
            <text x="288" xml:space="preserve" font-size="13px" y="35" clip-path="url(#clipPath2)" stroke="none">40</text>
            <text x="288" xml:space="preserve" font-size="13px" y="564" clip-path="url(#clipPath2)" stroke="none">40</text>
            <line y2="43" fill="none" x1="306" clip-path="url(#clipPath2)" x2="306" y1="41"/>
            <line y2="547" fill="none" x1="306" clip-path="url(#clipPath2)" x2="306" y1="549"/>
            <line y2="43" fill="none" x1="318" clip-path="url(#clipPath2)" x2="318" y1="41"/>
            <line y2="547" fill="none" x1="318" clip-path="url(#clipPath2)" x2="318" y1="549"/>
            <line y2="43" fill="none" x1="330" clip-path="url(#clipPath2)" x2="330" y1="41"/>
            <line y2="547" fill="none" x1="330" clip-path="url(#clipPath2)" x2="330" y1="549"/>
            <line y2="43" fill="none" x1="342" clip-path="url(#clipPath2)" x2="342" y1="41"/>
            <line y2="547" fill="none" x1="342" clip-path="url(#clipPath2)" x2="342" y1="549"/>
            <line y2="43" fill="none" x1="355" clip-path="url(#clipPath2)" x2="355" y1="39"/>
            <line y2="547" fill="none" x1="355" clip-path="url(#clipPath2)" x2="355" y1="551"/>
            <text x="349" xml:space="preserve" font-size="13px" y="35" clip-path="url(#clipPath2)" stroke="none">50</text>
            <text x="349" xml:space="preserve" font-size="13px" y="564" clip-path="url(#clipPath2)" stroke="none">50</text>
            <line y2="43" fill="none" x1="367" clip-path="url(#clipPath2)" x2="367" y1="41"/>
            <line y2="547" fill="none" x1="367" clip-path="url(#clipPath2)" x2="367" y1="549"/>
            <line y2="43" fill="none" x1="379" clip-path="url(#clipPath2)" x2="379" y1="41"/>
            <line y2="547" fill="none" x1="379" clip-path="url(#clipPath2)" x2="379" y1="549"/>
            <line y2="43" fill="none" x1="391" clip-path="url(#clipPath2)" x2="391" y1="41"/>
            <line y2="547" fill="none" x1="391" clip-path="url(#clipPath2)" x2="391" y1="549"/>
            <line y2="43" fill="none" x1="404" clip-path="url(#clipPath2)" x2="404" y1="41"/>
            <line y2="547" fill="none" x1="404" clip-path="url(#clipPath2)" x2="404" y1="549"/>
            <line y2="43" fill="none" x1="416" clip-path="url(#clipPath2)" x2="416" y1="39"/>
            <line y2="547" fill="none" x1="416" clip-path="url(#clipPath2)" x2="416" y1="551"/>
            <text x="410" xml:space="preserve" font-size="13px" y="35" clip-path="url(#clipPath2)" stroke="none">60</text>
            <text x="410" xml:space="preserve" font-size="13px" y="564" clip-path="url(#clipPath2)" stroke="none">60</text>
            <line y2="43" fill="none" x1="428" clip-path="url(#clipPath2)" x2="428" y1="41"/>
            <line y2="547" fill="none" x1="428" clip-path="url(#clipPath2)" x2="428" y1="549"/>
            <line y2="43" fill="none" x1="440" clip-path="url(#clipPath2)" x2="440" y1="41"/>
            <line y2="547" fill="none" x1="440" clip-path="url(#clipPath2)" x2="440" y1="549"/>
            <line y2="43" fill="none" x1="452" clip-path="url(#clipPath2)" x2="452" y1="41"/>
            <line y2="547" fill="none" x1="452" clip-path="url(#clipPath2)" x2="452" y1="549"/>
            <line y2="43" fill="none" x1="465" clip-path="url(#clipPath2)" x2="465" y1="41"/>
            <line y2="547" fill="none" x1="465" clip-path="url(#clipPath2)" x2="465" y1="549"/>
            <line y2="43" fill="none" x1="477" clip-path="url(#clipPath2)" x2="477" y1="39"/>
            <line y2="547" fill="none" x1="477" clip-path="url(#clipPath2)" x2="477" y1="551"/>
            <text x="471" xml:space="preserve" font-size="13px" y="35" clip-path="url(#clipPath2)" stroke="none">70</text>
            <text x="471" xml:space="preserve" font-size="13px" y="564" clip-path="url(#clipPath2)" stroke="none">70</text>
            <line y2="43" fill="none" x1="489" clip-path="url(#clipPath2)" x2="489" y1="41"/>
            <line y2="547" fill="none" x1="489" clip-path="url(#clipPath2)" x2="489" y1="549"/>
            <line y2="43" fill="none" x1="501" clip-path="url(#clipPath2)" x2="501" y1="41"/>
            <line y2="547" fill="none" x1="501" clip-path="url(#clipPath2)" x2="501" y1="549"/>
            <line y2="43" fill="none" x1="513" clip-path="url(#clipPath2)" x2="513" y1="41"/>
            <line y2="547" fill="none" x1="513" clip-path="url(#clipPath2)" x2="513" y1="549"/>
            <line y2="43" fill="none" x1="526" clip-path="url(#clipPath2)" x2="526" y1="41"/>
            <line y2="547" fill="none" x1="526" clip-path="url(#clipPath2)" x2="526" y1="549"/>
            <line y2="43" fill="none" x1="538" clip-path="url(#clipPath2)" x2="538" y1="39"/>
            <line y2="547" fill="none" x1="538" clip-path="url(#clipPath2)" x2="538" y1="551"/>
            <text x="532" xml:space="preserve" font-size="13px" y="35" clip-path="url(#clipPath2)" stroke="none">80</text>
            <text x="532" xml:space="preserve" font-size="13px" y="564" clip-path="url(#clipPath2)" stroke="none">80</text>
            <line y2="43" fill="none" x1="550" clip-path="url(#clipPath2)" x2="550" y1="41"/>
            <line y2="547" fill="none" x1="550" clip-path="url(#clipPath2)" x2="550" y1="549"/>
            <line y2="43" fill="none" x1="562" clip-path="url(#clipPath2)" x2="562" y1="41"/>
            <line y2="547" fill="none" x1="562" clip-path="url(#clipPath2)" x2="562" y1="549"/>
            <line y2="43" fill="none" x1="574" clip-path="url(#clipPath2)" x2="574" y1="41"/>
            <line y2="547" fill="none" x1="574" clip-path="url(#clipPath2)" x2="574" y1="549"/>
            <line y2="43" fill="none" x1="587" clip-path="url(#clipPath2)" x2="587" y1="41"/>
            <line y2="547" fill="none" x1="587" clip-path="url(#clipPath2)" x2="587" y1="549"/>
            <line y2="43" fill="none" x1="599" clip-path="url(#clipPath2)" x2="599" y1="39"/>
            <line y2="547" fill="none" x1="599" clip-path="url(#clipPath2)" x2="599" y1="551"/>
            <text x="593" xml:space="preserve" font-size="13px" y="35" clip-path="url(#clipPath2)" stroke="none">90</text>
            <text x="593" xml:space="preserve" font-size="13px" y="564" clip-path="url(#clipPath2)" stroke="none">90</text>
            <line y2="43" fill="none" x1="611" clip-path="url(#clipPath2)" x2="611" y1="41"/>
            <line y2="547" fill="none" x1="611" clip-path="url(#clipPath2)" x2="611" y1="549"/>
            <line y2="43" fill="none" x1="623" clip-path="url(#clipPath2)" x2="623" y1="41"/>
            <line y2="547" fill="none" x1="623" clip-path="url(#clipPath2)" x2="623" y1="549"/>
            <line y2="43" fill="none" x1="635" clip-path="url(#clipPath2)" x2="635" y1="41"/>
            <line y2="547" fill="none" x1="635" clip-path="url(#clipPath2)" x2="635" y1="549"/>
            <line y2="43" fill="none" x1="648" clip-path="url(#clipPath2)" x2="648" y1="41"/>
            <line y2="547" fill="none" x1="648" clip-path="url(#clipPath2)" x2="648" y1="549"/>
            <line y2="43" fill="none" x1="660" clip-path="url(#clipPath2)" x2="660" y1="39"/>
            <line y2="547" fill="none" x1="660" clip-path="url(#clipPath2)" x2="660" y1="551"/>
            <text x="650" xml:space="preserve" font-size="13px" y="35" clip-path="url(#clipPath2)" stroke="none">100</text>
            <text x="650" xml:space="preserve" font-size="13px" y="564" clip-path="url(#clipPath2)" stroke="none">100</text>
            <line y2="43" fill="none" x1="672" clip-path="url(#clipPath2)" x2="672" y1="41"/>
            <line y2="547" fill="none" x1="672" clip-path="url(#clipPath2)" x2="672" y1="549"/>
            <line y2="43" fill="none" x1="684" clip-path="url(#clipPath2)" x2="684" y1="41"/>
            <line y2="547" fill="none" x1="684" clip-path="url(#clipPath2)" x2="684" y1="549"/>
            <line y2="43" fill="none" x1="697" clip-path="url(#clipPath2)" x2="697" y1="41"/>
            <line y2="547" fill="none" x1="697" clip-path="url(#clipPath2)" x2="697" y1="549"/>
            <line y2="545" fill="none" x1="48" clip-path="url(#clipPath2)" x2="48" y1="45"/>
            <line y2="545" fill="none" x1="706" clip-path="url(#clipPath2)" x2="706" y1="45"/>
            <line y2="525" fill="none" x1="44" clip-path="url(#clipPath2)" x2="48" y1="525"/>
            <line y2="525" fill="none" x1="710" clip-path="url(#clipPath2)" x2="706" y1="525"/>
            <text x="1" xml:space="preserve" font-size="13px" y="530" clip-path="url(#clipPath2)" stroke="none">-1,2e-7</text>
            <text x="713" xml:space="preserve" font-size="13px" y="530" clip-path="url(#clipPath2)" stroke="none">-1,2e-7</text>
            <line y2="485" fill="none" x1="46" clip-path="url(#clipPath2)" x2="48" y1="485"/>
            <line y2="485" fill="none" x1="708" clip-path="url(#clipPath2)" x2="706" y1="485"/>
            <line y2="445" fill="none" x1="44" clip-path="url(#clipPath2)" x2="48" y1="445"/>
            <line y2="445" fill="none" x1="710" clip-path="url(#clipPath2)" x2="706" y1="445"/>
            <text x="12" xml:space="preserve" font-size="13px" y="450" clip-path="url(#clipPath2)" stroke="none">-1e-7</text>
            <text x="713" xml:space="preserve" font-size="13px" y="450" clip-path="url(#clipPath2)" stroke="none">-1e-7</text>
            <line y2="405" fill="none" x1="46" clip-path="url(#clipPath2)" x2="48" y1="405"/>
            <line y2="405" fill="none" x1="708" clip-path="url(#clipPath2)" x2="706" y1="405"/>
            <line y2="365" fill="none" x1="44" clip-path="url(#clipPath2)" x2="48" y1="365"/>
            <line y2="365" fill="none" x1="710" clip-path="url(#clipPath2)" x2="706" y1="365"/>
            <text x="12" xml:space="preserve" font-size="13px" y="370" clip-path="url(#clipPath2)" stroke="none">-8e-8</text>
            <text x="713" xml:space="preserve" font-size="13px" y="370" clip-path="url(#clipPath2)" stroke="none">-8e-8</text>
            <line y2="325" fill="none" x1="46" clip-path="url(#clipPath2)" x2="48" y1="325"/>
            <line y2="325" fill="none" x1="708" clip-path="url(#clipPath2)" x2="706" y1="325"/>
            <line y2="285" fill="none" x1="44" clip-path="url(#clipPath2)" x2="48" y1="285"/>
            <line y2="285" fill="none" x1="710" clip-path="url(#clipPath2)" x2="706" y1="285"/>
            <text x="12" xml:space="preserve" font-size="13px" y="290" clip-path="url(#clipPath2)" stroke="none">-6e-8</text>
            <text x="713" xml:space="preserve" font-size="13px" y="290" clip-path="url(#clipPath2)" stroke="none">-6e-8</text>
            <line y2="245" fill="none" x1="46" clip-path="url(#clipPath2)" x2="48" y1="245"/>
            <line y2="245" fill="none" x1="708" clip-path="url(#clipPath2)" x2="706" y1="245"/>
            <line y2="205" fill="none" x1="44" clip-path="url(#clipPath2)" x2="48" y1="205"/>
            <line y2="205" fill="none" x1="710" clip-path="url(#clipPath2)" x2="706" y1="205"/>
            <text x="12" xml:space="preserve" font-size="13px" y="210" clip-path="url(#clipPath2)" stroke="none">-4e-8</text>
            <text x="713" xml:space="preserve" font-size="13px" y="210" clip-path="url(#clipPath2)" stroke="none">-4e-8</text>
            <line y2="165" fill="none" x1="46" clip-path="url(#clipPath2)" x2="48" y1="165"/>
            <line y2="165" fill="none" x1="708" clip-path="url(#clipPath2)" x2="706" y1="165"/>
            <line y2="125" fill="none" x1="44" clip-path="url(#clipPath2)" x2="48" y1="125"/>
            <line y2="125" fill="none" x1="710" clip-path="url(#clipPath2)" x2="706" y1="125"/>
            <text x="12" xml:space="preserve" font-size="13px" y="130" clip-path="url(#clipPath2)" stroke="none">-2e-8</text>
            <text x="713" xml:space="preserve" font-size="13px" y="130" clip-path="url(#clipPath2)" stroke="none">-2e-8</text>
            <line y2="85" fill="none" x1="46" clip-path="url(#clipPath2)" x2="48" y1="85"/>
            <line y2="85" fill="none" x1="708" clip-path="url(#clipPath2)" x2="706" y1="85"/>
            <line y2="45" fill="none" x1="44" clip-path="url(#clipPath2)" x2="48" y1="45"/>
            <line y2="45" fill="none" x1="710" clip-path="url(#clipPath2)" x2="706" y1="45"/>
            <text x="35" xml:space="preserve" font-size="13px" y="50" clip-path="url(#clipPath2)" stroke="none">0</text>
            <text x="713" xml:space="preserve" font-size="13px" y="50" clip-path="url(#clipPath2)" stroke="none">0</text>
        </g>
    </g>
</svg>
